<svg width="52" height="30" viewBox="0 0 52 30" fill="none" xmlns="http://www.w3.org/2000/svg">
<path fill-rule="evenodd" clip-rule="evenodd" d="M51.4336 2.86337C51.1239 0.994163 49.4722 0.423017 47.7688 0.371095C46.0655 0.26725 43.8976 0.526862 43.2782 2.39607C38.2198 -0.355818 29.7031 0.111483 27.7933 6.54985C26.761 10.0806 26.8126 14.1305 27.5353 17.7132C28.103 20.465 29.6515 22.7496 32.284 23.7361C35.7422 25.0342 40.0264 24.6708 43.2266 22.9054C43.7944 24.6188 45.6526 24.9823 47.2527 24.9823C48.7495 24.9823 50.5045 24.7227 51.1755 23.165C51.4336 22.5419 51.4336 21.8669 51.4336 21.192C51.4852 20.1535 51.5368 11.7421 51.5368 8.5229C51.5884 7.32869 51.5884 3.90181 51.4336 2.86337ZM42.7617 15.7402C42.3488 17.7652 40.6971 18.7517 38.8905 18.6998C37.0839 18.6998 35.4322 17.7133 35.0193 15.7402C34.658 14.0787 34.6063 12.3134 34.8644 10.5999C35.0193 9.4057 35.2774 8.0038 36.3097 7.22496C36.9807 6.70574 38.013 6.49805 38.9421 6.49805C39.9228 6.49805 40.9035 6.70574 41.5745 7.22496C42.6069 8.0038 42.8649 9.4057 43.0198 10.5999C43.1746 12.3134 43.123 14.0787 42.7617 15.7402ZM15.6018 3.21648C15.6018 1.71074 16.7889 0.516522 18.2858 0.516522C21.5376 0.516522 24.1701 3.21648 24.2217 6.48759V20.1432C24.2217 23.0508 23.1377 24.92 22.8797 25.3354C21.7957 27.3085 20.0408 28.6065 17.6148 29.1777C13.5887 30.1642 9.51104 30.3199 5.48497 29.3334C2.6977 28.6584 1.14921 26.7373 0.839511 23.8297C0.736278 22.6874 1.92345 21.9085 2.95578 22.3758C4.9172 23.3624 7.13669 23.5181 9.35619 23.5181C10.4918 23.5181 11.6273 23.4662 12.7113 23.2066C15.1888 22.6874 15.705 21.0778 15.705 18.7413C15.705 18.4297 15.5501 18.4297 15.3437 18.5336C13.8468 19.4163 12.1951 19.6239 10.4918 19.6759C8.27225 19.7278 6.05275 19.572 4.03972 18.5855C1.97507 17.599 0.736278 16.0413 0.271732 13.8086C-0.0895819 11.8356 0.0136506 3.16456 0.0136506 3.16456C0.0136506 1.65881 1.20082 0.4646 2.6977 0.4646C6.00114 0.4646 8.63357 3.16456 8.63357 6.43567C8.63357 6.43567 8.78841 11.8356 8.94326 12.3548C9.20135 13.3933 9.82074 14.1202 10.9047 14.224C11.7822 14.3279 12.7113 14.3798 13.5887 14.224C14.8791 14.0163 15.4985 13.1856 15.5501 11.8875C15.6018 10.1222 15.6018 3.21648 15.6018 3.21648Z" fill="url(#paint0_linear_595_162)"/>
<defs>
<linearGradient id="paint0_linear_595_162" x1="2.47095" y1="14.9468" x2="51.0208" y2="11.2527" gradientUnits="userSpaceOnUse">
<stop stop-color="#00CCCC"/>
<stop offset="1" stop-color="#0098C8"/>
</linearGradient>
</defs>
</svg>
